<svg width="128" height="128" xmlns="http://www.w3.org/2000/svg"><g fill="none" fill-rule="evenodd"><path fill="#D6336C" d="M0 0h128v128H0z"/><path d="M58.362 42.701c.316-.135 4.945 4.713 4.945 4.713l2.957.045s4.358-4.893 4.674-4.758l4.538 2.085c.299.128.275 5.895.272 6.535v.057l2.122 2.107s6.525-.204 6.66.114l2.145 4.53c.136.318-4.764 4.804-4.764 4.804l.023 2.945s4.877 4.44 4.719 4.69l-1.83 4.485c-.112.317-6.705.113-6.705.113l-2.055 2.062s.362 7.136.046 7.272l-4.516 1.7c-.294.113-4.922-5.28-4.922-5.28l-2.958-.045s-4.358 5.46-4.674 5.324l-4.538-1.88c-.316-.113-.27-7.318-.27-7.318l-2.123-2.106s-6.525.203-6.66-.114l-2.146-4.53c-.128-.301 4.262-4.343 4.725-4.768l.04-.036-.023-2.922s-4.877-4.44-4.742-4.758l1.829-4.486c.113-.294 6.706-.09 6.706-.09l2.054-2.062s-.36-6.434-.045-6.547zm6.267 14.515l-.239.007c-3.906.159-6.954 3.444-6.796 7.318.158 3.874 3.5 6.887 7.406 6.706 3.906-.181 6.954-3.466 6.796-7.34-.158-3.852-3.5-6.865-7.406-6.684zm52.595-1.896L95.323 33.345l-.023.023c-16.956-16.607-44.118-16.493-60.916.362-11.493 11.554-6.277 6.32-21.608 21.59-5.035 5.053-5.035 13.299 0 18.351C28.56 89.394 23.253 84.093 34.768 95.647l.022-.023c16.956 16.606 44.118 16.516 60.917-.362 11.515-11.532 6.299-6.321 21.517-21.59 5.035-5.053 5.035-13.3 0-18.352zM40.706 88.918c-13.457-13.48-13.457-35.342 0-48.822 13.434-13.502 35.222-13.48 48.679 0 13.434 13.48 13.456 35.342 0 48.845-13.457 13.48-35.223 13.457-48.68-.023z" fill="#FFF" fill-rule="nonzero"/></g></svg>